<?xml version="1.0" encoding="UTF-8" standalone="no"?>
<svg
   xmlns:inkscape="http://www.inkscape.org/namespaces/inkscape"
   xmlns:sodipodi="http://sodipodi.sourceforge.net/DTD/sodipodi-0.dtd"
   xmlns="http://www.w3.org/2000/svg"
   xmlns:svg="http://www.w3.org/2000/svg"
   width="64px"
   height="64px"
   viewBox="0 0 64 64"
   version="1.1"
   id="svg5"
   sodipodi:docname="sound_max.svg"
   inkscape:version="1.2.1 (9c6d41e410, 2022-07-14)">
   <defs
   id="defs9" />
<sodipodi:namedview
   id="namedview7"
   pagecolor="#ffffff"
   bordercolor="#666666"
   borderopacity="1.0"
   inkscape:showpageshadow="2"
   inkscape:pageopacity="0.0"
   inkscape:pagecheckerboard="0"
   inkscape:deskcolor="#d1d1d1"
   showgrid="true"
   inkscape:zoom="6.1367188"
   inkscape:cx="-21.91725"
   inkscape:cy="41.06429"
   inkscape:window-width="640"
   inkscape:window-height="480"
   inkscape:current-layer="surface1">
  <inkscape:grid
     type="xygrid"
     id="grid169" />
</sodipodi:namedview>
<g
   id="surface1">
  <path
     style="fill:#ffffff;fill-opacity:1;fill-rule:nonzero;stroke:none"
     d="m 29.570312,13.984375 v 40.90625 c 0,0.652344 -0.238281,1.21875 -0.722656,1.695313 -0.480468,0.476562 -1.046875,0.714843 -1.707031,0.710937 -0.65625,0 -1.226563,-0.234375 -1.707031,-0.710937 L 12.792969,44.0625 H 2.847656 C 2.1875,44.0625 1.621094,43.828125 1.140625,43.351562 0.65625,42.875 0.417969,42.308594 0.417969,41.65625 v -14.4375 c 0,-0.648438 0.238281,-1.214844 0.722656,-1.691406 C 1.621094,25.050781 2.1875,24.8125 2.847656,24.8125 h 9.945313 L 25.433594,12.292969 c 0.480468,-0.476563 1.050781,-0.714844 1.707031,-0.714844 0.660156,0 1.226563,0.238281 1.707031,0.714844 0.484375,0.476562 0.722656,1.042969 0.722656,1.691406 z M 44.148438,34.4375 c 0,1.90625 -0.539063,3.679688 -1.613282,5.320312 -1.078125,1.644532 -2.5,2.816407 -4.273437,3.515626 -0.25,0.125 -0.566407,0.1875 -0.949219,0.1875 -0.65625,0 -1.226562,-0.230469 -1.707031,-0.695313 -0.480469,-0.460937 -0.71875,-1.03125 -0.71875,-1.710937 0,-0.523438 0.148437,-0.96875 0.453125,-1.332032 0.304687,-0.363281 0.671875,-0.675781 1.101562,-0.941406 0.429688,-0.261719 0.859375,-0.550781 1.289063,-0.863281 0.429687,-0.3125 0.796875,-0.765625 1.101562,-1.355469 0.304688,-0.585938 0.457031,-1.296875 0.457031,-2.125 0,-0.824219 -0.152343,-1.535156 -0.457031,-2.121094 -0.304687,-0.589844 -0.667969,-1.042968 -1.101562,-1.355468 -0.429688,-0.3125 -0.859375,-0.601563 -1.289063,-0.863282 -0.429687,-0.265625 -0.796875,-0.578125 -1.101562,-0.941406 -0.304688,-0.363281 -0.453125,-0.808594 -0.453125,-1.335938 0,-0.675781 0.238281,-1.246093 0.71875,-1.707031 0.480469,-0.464843 1.050781,-0.695312 1.707031,-0.699219 0.382812,0 0.699219,0.06641 0.949219,0.191407 1.773437,0.675781 3.195312,1.839843 4.273437,3.496093 1.074219,1.652344 1.613282,3.433594 1.613282,5.335938 z m 9.714843,0 c 0,3.835938 -1.074219,7.378906 -3.226562,10.625 -2.148438,3.246094 -4.996094,5.605469 -8.539063,7.085938 -0.328125,0.125 -0.644531,0.1875 -0.949218,0.1875 -0.683594,0 -1.265626,-0.238282 -1.746094,-0.714844 -0.480469,-0.476563 -0.722656,-1.039063 -0.722656,-1.691406 0,-0.976563 0.496093,-1.71875 1.480468,-2.21875 1.417969,-0.726563 2.378906,-1.277344 2.886719,-1.652344 1.871094,-1.355469 3.332031,-3.054688 4.382813,-5.097656 1.050781,-2.042969 1.578124,-4.214844 1.578124,-6.523438 0,-2.304688 -0.527343,-4.476562 -1.578124,-6.519531 -1.050782,-2.042969 -2.511719,-3.742188 -4.382813,-5.097657 -0.507813,-0.375 -1.46875,-0.925781 -2.886719,-1.652343 -0.984375,-0.5 -1.480468,-1.242188 -1.480468,-2.21875 0,-0.652344 0.242187,-1.214844 0.722656,-1.691407 0.480468,-0.476562 1.050781,-0.714843 1.707031,-0.714843 0.328125,0 0.660156,0.0625 0.988281,0.1875 3.542969,1.480469 6.390625,3.839843 8.539063,7.085937 2.152343,3.246094 3.226562,6.789063 3.226562,10.621094 z m 9.71875,0 c 0,5.765625 -1.605469,11.0625 -4.820312,15.886719 -3.214844,4.824219 -7.492188,8.378906 -12.832031,10.660156 -0.328126,0.125 -0.65625,0.1875 -0.984376,0.1875 -0.660156,0 -1.226562,-0.238281 -1.710937,-0.714844 -0.480469,-0.476562 -0.71875,-1.039062 -0.71875,-1.691406 0,-0.902344 0.492187,-1.640625 1.480469,-2.21875 0.175781,-0.101563 0.460937,-0.230469 0.851562,-0.394531 0.394532,-0.164063 0.679688,-0.292969 0.855469,-0.394532 1.164063,-0.628906 2.203125,-1.265624 3.113281,-1.917968 3.113282,-2.28125 5.542969,-5.125 7.289063,-8.535156 1.746093,-3.410157 2.617187,-7.03125 2.617187,-10.867188 0,-3.832031 -0.871094,-7.453125 -2.617187,-10.863281 C 54.359375,20.164062 51.929688,17.320312 48.816406,15.039062 47.90625,14.386719 46.867188,13.75 45.703125,13.121094 45.527344,13.019531 45.242188,12.890625 44.847656,12.726562 44.457031,12.5625 44.171875,12.433594 43.996094,12.332031 c -0.988282,-0.578125 -1.480469,-1.316406 -1.480469,-2.21875 0,-0.652343 0.238281,-1.214843 0.71875,-1.691406 0.484375,-0.476563 1.050781,-0.714844 1.710937,-0.714844 0.328126,0 0.65625,0.0625 0.984376,0.1875 5.339843,2.28125 9.617187,5.835938 12.832031,10.660157 3.214843,4.824218 4.820312,10.121093 4.820312,15.882812 z m 0,0"/>
</g>
</svg>
