<?xml version="1.0" encoding="UTF-8" standalone="no"?>
<svg
   width="64px"
   height="64px"
   viewBox="0 0 64 64"
   version="1.1"
   id="svg5"
   sodipodi:docname="sound_mute.svg"
   inkscape:version="1.2.1 (9c6d41e410, 2022-07-14)"
   xmlns:inkscape="http://www.inkscape.org/namespaces/inkscape"
   xmlns:sodipodi="http://sodipodi.sourceforge.net/DTD/sodipodi-0.dtd"
   xmlns="http://www.w3.org/2000/svg"
   xmlns:svg="http://www.w3.org/2000/svg">
  <defs
     id="defs9" />
  <sodipodi:namedview
     id="namedview7"
     pagecolor="#ffffff"
     bordercolor="#666666"
     borderopacity="1.0"
     inkscape:showpageshadow="2"
     inkscape:pageopacity="0.0"
     inkscape:pagecheckerboard="0"
     inkscape:deskcolor="#d1d1d1"
     showgrid="true"
     inkscape:zoom="8.678631"
     inkscape:cx="32.724055"
     inkscape:cy="30.304319"
     inkscape:window-width="1920"
     inkscape:window-height="1017"
     inkscape:current-layer="surface1"
     inkscape:window-x="1912"
     inkscape:window-y="-8"
     inkscape:window-maximized="1">
    <inkscape:grid
       type="xygrid"
       id="grid169" />
  </sodipodi:namedview>
  <g
     id="surface1">
    <path
       style="fill:#ffffff;fill-opacity:1;fill-rule:nonzero;stroke:none"
       d="m 29.570312,13.984375 v 40.90625 c 0,0.652344 -0.238281,1.21875 -0.722656,1.695313 -0.480468,0.476562 -1.046875,0.714843 -1.707031,0.710937 -0.65625,0 -1.226563,-0.234375 -1.707031,-0.710937 L 12.792969,44.0625 H 2.847656 C 2.1875,44.0625 1.621094,43.828125 1.140625,43.351562 0.65625,42.875 0.417969,42.308594 0.417969,41.65625 v -14.4375 c 0,-0.648438 0.238281,-1.214844 0.722656,-1.691406 C 1.621094,25.050781 2.1875,24.8125 2.847656,24.8125 h 9.945313 L 25.433594,12.292969 c 0.480468,-0.476563 1.050781,-0.714844 1.707031,-0.714844 0.660156,0 1.226563,0.238281 1.707031,0.714844 0.484375,0.476562 0.722656,1.042969 0.722656,1.691406 z"
       id="path293"
       sodipodi:nodetypes="ssccccscsscsccscs" />
  </g>
</svg>
