<?xml version="1.0" encoding="UTF-8" standalone="no"?>
<svg
   width="64px"
   height="64px"
   viewBox="0 0 64 62"
   version="1.1"
   id="svg703"
   sodipodi:docname="brightness_max.svg"
   inkscape:version="1.2.1 (9c6d41e410, 2022-07-14)"
   xmlns:inkscape="http://www.inkscape.org/namespaces/inkscape"
   xmlns:sodipodi="http://sodipodi.sourceforge.net/DTD/sodipodi-0.dtd"
   xmlns="http://www.w3.org/2000/svg"
   xmlns:svg="http://www.w3.org/2000/svg">
  <defs
     id="defs707" />
  <sodipodi:namedview
     id="namedview705"
     pagecolor="#ffffff"
     bordercolor="#666666"
     borderopacity="1.0"
     inkscape:showpageshadow="2"
     inkscape:pageopacity="0.0"
     inkscape:pagecheckerboard="0"
     inkscape:deskcolor="#d1d1d1"
     showgrid="false"
     inkscape:zoom="12.71875"
     inkscape:cx="31.960688"
     inkscape:cy="32"
     inkscape:window-width="1920"
     inkscape:window-height="1017"
     inkscape:window-x="1912"
     inkscape:window-y="-8"
     inkscape:window-maximized="1"
     inkscape:current-layer="svg703" />
  <g
     id="surface1">
    <path
       style=" stroke:none;fill-rule:nonzero;fill:rgb(100%,100%,100%);fill-opacity:1;"
       d="M 31.996094 17.519531 C 33.90625 17.519531 35.726562 17.886719 37.464844 18.628906 C 39.199219 19.367188 40.695312 20.359375 41.949219 21.609375 C 43.203125 22.855469 44.199219 24.34375 44.941406 26.066406 C 45.683594 27.792969 46.054688 29.601562 46.054688 31.492188 C 46.054688 33.390625 45.683594 35.203125 44.941406 36.929688 C 44.199219 38.65625 43.203125 40.140625 41.945312 41.390625 C 40.691406 42.640625 39.199219 43.632812 37.460938 44.371094 C 35.726562 45.113281 33.90625 45.480469 31.996094 45.480469 C 30.089844 45.480469 28.269531 45.113281 26.53125 44.375 C 24.792969 43.632812 23.296875 42.640625 22.042969 41.390625 C 20.785156 40.144531 19.789062 38.65625 19.042969 36.929688 C 18.300781 35.203125 17.929688 33.390625 17.929688 31.492188 C 17.929688 29.601562 18.300781 27.792969 19.042969 26.066406 C 19.785156 24.34375 20.785156 22.855469 22.042969 21.609375 C 23.296875 20.359375 24.792969 19.367188 26.53125 18.628906 C 28.265625 17.886719 30.089844 17.519531 31.996094 17.519531 Z M 32.453125 43.199219 C 34.582031 43.199219 36.550781 42.675781 38.359375 41.632812 C 40.167969 40.589844 41.59375 39.167969 42.644531 37.371094 C 43.691406 35.570312 44.214844 33.613281 44.214844 31.492188 C 44.214844 29.378906 43.691406 27.425781 42.644531 25.628906 C 41.59375 23.835938 40.167969 22.414062 38.359375 21.371094 C 36.554688 20.328125 34.582031 19.804688 32.453125 19.804688 Z M 29.429688 13.527344 L 29.429688 2.550781 C 29.429688 1.84375 29.679688 1.242188 30.179688 0.746094 C 30.679688 0.25 31.28125 0 31.988281 0 C 32.703125 0 33.308594 0.25 33.808594 0.746094 C 34.3125 1.242188 34.5625 1.84375 34.5625 2.550781 L 34.5625 13.527344 C 34.5625 14.234375 34.3125 14.832031 33.808594 15.328125 C 33.308594 15.824219 32.703125 16.074219 31.988281 16.074219 C 31.28125 16.074219 30.679688 15.824219 30.179688 15.328125 C 29.679688 14.832031 29.429688 14.230469 29.429688 13.527344 Z M 29.429688 60.441406 L 29.429688 49.476562 C 29.429688 48.769531 29.679688 48.167969 30.179688 47.667969 C 30.679688 47.171875 31.285156 46.921875 31.992188 46.921875 C 32.703125 46.921875 33.308594 47.171875 33.8125 47.667969 C 34.3125 48.167969 34.5625 48.769531 34.5625 49.476562 L 34.5625 60.441406 C 34.5625 61.148438 34.3125 61.75 33.8125 62.25 C 33.308594 62.75 32.703125 63 31.992188 63 C 31.285156 63 30.679688 62.75 30.179688 62.25 C 29.679688 61.753906 29.429688 61.148438 29.429688 60.441406 Z M 42.976562 20.589844 C 42.476562 20.09375 42.226562 19.492188 42.226562 18.789062 C 42.226562 18.082031 42.476562 17.484375 42.976562 16.984375 L 50.78125 9.226562 C 51.28125 8.730469 51.886719 8.484375 52.59375 8.484375 C 53.300781 8.484375 53.90625 8.730469 54.410156 9.226562 C 54.910156 9.726562 55.160156 10.328125 55.160156 11.03125 C 55.160156 11.738281 54.910156 12.339844 54.410156 12.835938 L 46.601562 20.589844 C 46.097656 21.089844 45.492188 21.339844 44.789062 21.339844 C 44.082031 21.339844 43.480469 21.089844 42.976562 20.589844 Z M 9.585938 53.773438 C 9.082031 53.277344 8.832031 52.675781 8.832031 51.972656 C 8.832031 51.265625 9.082031 50.664062 9.585938 50.164062 L 17.394531 42.410156 C 17.898438 41.914062 18.503906 41.667969 19.210938 41.667969 C 19.917969 41.667969 20.523438 41.914062 21.027344 42.410156 C 21.527344 42.902344 21.78125 43.5 21.78125 44.207031 C 21.78125 44.910156 21.527344 45.511719 21.027344 46.003906 L 13.222656 53.773438 C 12.722656 54.265625 12.113281 54.515625 11.402344 54.515625 C 10.691406 54.515625 10.085938 54.265625 9.585938 53.773438 Z M 50.085938 34.050781 C 49.375 34.050781 48.769531 33.800781 48.265625 33.300781 C 47.761719 32.800781 47.507812 32.199219 47.507812 31.492188 C 47.507812 30.792969 47.761719 30.191406 48.265625 29.695312 C 48.769531 29.195312 49.375 28.949219 50.085938 28.949219 L 61.117188 28.949219 C 61.828125 28.949219 62.433594 29.195312 62.9375 29.695312 C 63.4375 30.195312 63.6875 30.792969 63.6875 31.492188 C 63.6875 32.199219 63.4375 32.804688 62.9375 33.300781 C 62.433594 33.800781 61.828125 34.050781 61.117188 34.050781 Z M 2.875 34.050781 C 2.164062 34.050781 1.558594 33.800781 1.058594 33.304688 C 0.558594 32.804688 0.308594 32.203125 0.308594 31.492188 C 0.308594 30.792969 0.558594 30.191406 1.058594 29.695312 C 1.558594 29.195312 2.164062 28.949219 2.875 28.949219 L 13.90625 28.949219 C 14.613281 28.949219 15.21875 29.199219 15.722656 29.695312 C 16.230469 30.195312 16.480469 30.792969 16.480469 31.492188 C 16.480469 32.199219 16.230469 32.800781 15.726562 33.300781 C 15.222656 33.800781 14.613281 34.050781 13.90625 34.050781 Z M 50.78125 53.773438 L 42.980469 46.003906 C 42.476562 45.511719 42.226562 44.914062 42.226562 44.207031 C 42.226562 43.503906 42.476562 42.902344 42.980469 42.410156 C 43.472656 41.914062 44.078125 41.667969 44.789062 41.667969 C 45.5 41.667969 46.105469 41.914062 46.601562 42.410156 L 54.414062 50.164062 C 54.914062 50.664062 55.164062 51.265625 55.164062 51.96875 C 55.164062 52.675781 54.914062 53.273438 54.414062 53.773438 C 53.90625 54.265625 53.300781 54.511719 52.59375 54.511719 C 51.875 54.515625 51.273438 54.269531 50.78125 53.773438 Z M 17.394531 20.589844 L 9.585938 12.835938 C 9.082031 12.339844 8.832031 11.738281 8.832031 11.035156 C 8.832031 10.328125 9.082031 9.726562 9.585938 9.226562 C 10.089844 8.730469 10.699219 8.484375 11.40625 8.484375 C 12.117188 8.484375 12.722656 8.730469 13.222656 9.226562 L 21.027344 16.984375 C 21.527344 17.480469 21.78125 18.082031 21.78125 18.785156 C 21.78125 19.492188 21.527344 20.09375 21.027344 20.589844 C 20.511719 21.089844 19.90625 21.339844 19.207031 21.339844 C 18.5 21.339844 17.898438 21.089844 17.394531 20.589844 Z M 17.394531 20.589844 "
       id="path700" />
  </g>
</svg>
