<?xml version="1.0" encoding="UTF-8" standalone="no"?>
<svg
   width="64px"
   height="64px"
   viewBox="0 0 64 62"
   version="1.1"
   id="svg703"
   sodipodi:docname="brightness_min.svg"
   inkscape:version="1.2.1 (9c6d41e410, 2022-07-14)"
   xmlns:inkscape="http://www.inkscape.org/namespaces/inkscape"
   xmlns:sodipodi="http://sodipodi.sourceforge.net/DTD/sodipodi-0.dtd"
   xmlns="http://www.w3.org/2000/svg"
   xmlns:svg="http://www.w3.org/2000/svg">
  <defs
     id="defs707" />
  <sodipodi:namedview
     id="namedview705"
     pagecolor="#ffffff"
     bordercolor="#666666"
     borderopacity="1.0"
     inkscape:showpageshadow="2"
     inkscape:pageopacity="0.0"
     inkscape:pagecheckerboard="0"
     inkscape:deskcolor="#d1d1d1"
     showgrid="false"
     inkscape:zoom="12.71875"
     inkscape:cx="31.960688"
     inkscape:cy="25.710074"
     inkscape:window-width="1920"
     inkscape:window-height="1017"
     inkscape:window-x="1912"
     inkscape:window-y="-8"
     inkscape:window-maximized="1"
     inkscape:current-layer="surface1" />
  <g
     id="surface1">
    <path
       style="fill:#ffffff;fill-opacity:1;fill-rule:nonzero;stroke:none"
       d="m 31.996094,17.519531 c 1.910156,0 3.730468,0.367188 5.46875,1.109375 1.734375,0.738282 3.230468,1.730469 4.484375,2.980469 1.253906,1.246094 2.25,2.734375 2.992187,4.457031 0.742188,1.726563 1.113282,3.535156 1.113282,5.425782 0,1.898437 -0.371094,3.710937 -1.113282,5.4375 -0.742187,1.726562 -1.738281,3.210937 -2.996094,4.460937 -1.253906,1.25 -2.746093,2.242187 -4.484374,2.980469 -1.734376,0.742187 -3.554688,1.109375 -5.464844,1.109375 -1.90625,0 -3.726563,-0.367188 -5.464844,-1.105469 -1.738281,-0.742188 -3.234375,-1.734375 -4.488281,-2.984375 -1.257813,-1.246094 -2.253907,-2.734375 -3,-4.460937 -0.742188,-1.726563 -1.113281,-3.539063 -1.113281,-5.4375 0,-1.890626 0.371093,-3.699219 1.113281,-5.425782 0.742187,-1.722656 1.742187,-3.210937 3,-4.457031 1.253906,-1.25 2.75,-2.242187 4.488281,-2.980469 1.734375,-0.742187 3.558594,-1.109375 5.464844,-1.109375 z m 0.457031,25.679688 c 2.128906,0 4.097656,-0.523438 5.90625,-1.566407 1.808594,-1.042968 3.234375,-2.464843 4.285156,-4.261718 1.046875,-1.800782 1.570313,-3.757813 1.570313,-5.878906 0,-2.113282 -0.523438,-4.066407 -1.570313,-5.863282 -1.050781,-1.792968 -2.476562,-3.214844 -4.285156,-4.257812 -1.804687,-1.042969 -3.777344,-1.566406 -5.90625,-1.566406 z M 29.429688,13.527344 V 2.550781 c 0,-0.707031 0.25,-1.308593 0.75,-1.804687 C 30.679688,0.25 31.28125,0 31.988281,0 32.703125,0 33.308594,0.25 33.808594,0.746094 34.3125,1.242188 34.5625,1.84375 34.5625,2.550781 v 10.976563 c 0,0.707031 -0.25,1.304687 -0.753906,1.800781 -0.5,0.496094 -1.105469,0.746094 -1.820313,0.746094 -0.707031,0 -1.308593,-0.25 -1.808593,-0.746094 -0.5,-0.496094 -0.75,-1.097656 -0.75,-1.800781 z"
       id="path700"
       sodipodi:nodetypes="scccssccscccscccscscsccccsssscsscsss" />
  </g>
</svg>
