<?xml version="1.0" encoding="UTF-8" standalone="no"?>
<svg
   width="64px"
   height="64px"
   viewBox="0 0 64 63"
   version="1.1"
   id="svg253"
   sodipodi:docname="bluetooth_on_new.svg"
   inkscape:version="1.2.1 (9c6d41e410, 2022-07-14)"
   xmlns:inkscape="http://www.inkscape.org/namespaces/inkscape"
   xmlns:sodipodi="http://sodipodi.sourceforge.net/DTD/sodipodi-0.dtd"
   xmlns="http://www.w3.org/2000/svg"
   xmlns:svg="http://www.w3.org/2000/svg">
  <defs
     id="defs257" />
  <sodipodi:namedview
     id="namedview255"
     pagecolor="#ffffff"
     bordercolor="#666666"
     borderopacity="1.0"
     inkscape:showpageshadow="2"
     inkscape:pageopacity="0.0"
     inkscape:pagecheckerboard="0"
     inkscape:deskcolor="#d1d1d1"
     showgrid="false"
     inkscape:zoom="12.71875"
     inkscape:cx="24.019656"
     inkscape:cy="32"
     inkscape:window-width="1920"
     inkscape:window-height="1017"
     inkscape:window-x="1912"
     inkscape:window-y="-8"
     inkscape:window-maximized="1"
     inkscape:current-layer="svg253" />
  <g
     id="surface1"
     transform="translate(8,6)">
    <path
       style="fill:#ffffff;fill-opacity:1;fill-rule:nonzero;stroke:none"
       d="m 26.421875,33.007812 4.59375,4.550782 -4.625,4.585937 z m -0.03125,-18.796874 4.625,4.585937 -4.59375,4.550781 z m -4.035156,37.652343 14.40625,-14.273437 -9.5,-9.410156 9.5,-9.414063 -14.40625,-14.273437 v 18.792968 l -7.917969,-7.84375 -2.886719,2.863282 9.933594,9.875 -9.933594,9.871093 2.886719,2.863281 7.917969,-7.84375 z M 44.679688,28.179688 c 0,4.285156 -0.332032,8.03125 -0.996094,11.242187 -0.660156,3.207031 -1.566406,5.84375 -2.714844,7.90625 -1.148438,2.058594 -2.605469,3.726563 -4.363281,4.996094 -1.757813,1.273437 -3.636719,2.160156 -5.636719,2.664062 -1.996094,0.5 -4.265625,0.75 -6.8125,0.753907 -2.546875,0 -4.820312,-0.253907 -6.816406,-0.753907 -1.996094,-0.503906 -3.875,-1.390625 -5.636719,-2.664062 C 9.945312,51.054688 8.492188,49.386719 7.34375,47.328125 6.195312,45.265625 5.289062,42.628906 4.625,39.421875 3.964844,36.210938 3.632812,32.464844 3.632812,28.179688 3.632812,23.890625 3.964844,20.144531 4.625,16.933594 5.289062,13.726562 6.195312,11.089844 7.34375,9.027344 8.492188,6.96875 9.945312,5.300781 11.703125,4.03125 13.464844,2.757812 15.34375,1.871094 17.339844,1.367188 c 1.996094,-0.5 4.269531,-0.75 6.816406,-0.75 2.542969,0 4.816406,0.25 6.8125,0.75 2,0.503906 3.878906,1.390624 5.636719,2.664062 1.757812,1.269531 3.214843,2.9375 4.363281,4.996094 1.148438,2.0625 2.054688,4.699218 2.714844,7.90625 0.664062,3.210937 0.996094,6.957031 0.996094,11.246094 z m 0,0"
       id="path250" />
  </g>
</svg>
