<?xml version="1.0" encoding="UTF-8" standalone="no"?>
<svg
   width="64px"
   height="64px"
   viewBox="0 0 64 64"
   version="1.1"
   id="svg613"
   sodipodi:docname="network_disc_new.svg"
   inkscape:version="1.2.1 (9c6d41e410, 2022-07-14)"
   xmlns:inkscape="http://www.inkscape.org/namespaces/inkscape"
   xmlns:sodipodi="http://sodipodi.sourceforge.net/DTD/sodipodi-0.dtd"
   xmlns="http://www.w3.org/2000/svg"
   xmlns:svg="http://www.w3.org/2000/svg">
  <defs
     id="defs617" />
  <sodipodi:namedview
     id="namedview615"
     pagecolor="#ffffff"
     bordercolor="#666666"
     borderopacity="1.0"
     inkscape:showpageshadow="2"
     inkscape:pageopacity="0.0"
     inkscape:pagecheckerboard="0"
     inkscape:deskcolor="#d1d1d1"
     showgrid="false"
     inkscape:zoom="12.71875"
     inkscape:cx="24.4914"
     inkscape:cy="32"
     inkscape:window-width="1920"
     inkscape:window-height="1017"
     inkscape:window-x="1912"
     inkscape:window-y="-8"
     inkscape:window-maximized="1"
     inkscape:current-layer="svg613" />
  <g
     id="surface1"
     transform="translate(8,6)">
    <path
       style="fill:#ffffff;fill-opacity:1;fill-rule:nonzero;stroke:none"
       d="m 41.609375,28.53125 c 0,-3.355469 -0.914063,-6.425781 -2.738281,-9.21875 L 15.160156,42.84375 C 18.03125,44.699219 21.144531,45.625 24.5,45.625 c 2.328125,0 4.542969,-0.453125 6.652344,-1.359375 2.105468,-0.90625 3.925781,-2.121094 5.457031,-3.640625 1.53125,-1.519531 2.746094,-3.339844 3.648437,-5.453125 0.902344,-2.113281 1.351563,-4.328125 1.351563,-6.640625 z M 10.191406,37.875 33.933594,14.3125 C 31.105469,12.417969 27.960938,11.46875 24.5,11.46875 c -3.101562,0 -5.964844,0.761719 -8.585938,2.28125 -2.621093,1.519531 -4.695312,3.59375 -6.226562,6.21875 -1.53125,2.625 -2.296875,5.480469 -2.296875,8.5625 0,3.375 0.933594,6.488281 2.800781,9.34375 z m 38.460938,-9.34375 c 0,3.269531 -0.636719,6.394531 -1.917969,9.375 -1.277344,2.980469 -2.992187,5.542969 -5.140625,7.6875 -2.148438,2.144531 -4.71875,3.855469 -7.707031,5.125 C 30.898438,51.988281 27.769531,52.625 24.5,52.625 c -3.269531,0 -6.398438,-0.636719 -9.386719,-1.90625 C 12.125,49.449219 9.554688,47.738281 7.40625,45.59375 5.257812,43.449219 3.542969,40.886719 2.265625,37.90625 c -1.28125,-2.980469 -1.917969,-6.105469 -1.917969,-9.375 0,-3.269531 0.636719,-6.390625 1.917969,-9.359375 C 3.542969,16.203125 5.257812,13.644531 7.40625,11.5 9.554688,9.355469 12.125,7.644531 15.113281,6.375 18.101562,5.105469 21.230469,4.46875 24.5,4.46875 c 3.269531,0 6.398438,0.636719 9.386719,1.90625 2.988281,1.269531 5.558593,2.980469 7.707031,5.125 2.148438,2.144531 3.863281,4.703125 5.140625,7.671875 1.28125,2.96875 1.917969,6.089844 1.917969,9.359375 z m 0,0"
       id="path610" />
  </g>
</svg>
