<?xml version="1.0" encoding="UTF-8" standalone="no"?>
<svg
   width="64px"
   height="64px"
   viewBox="0 0 64 64"
   version="1.1"
   id="svg643"
   sodipodi:docname="network_icon_new.svg"
   inkscape:version="1.2.1 (9c6d41e410, 2022-07-14)"
   xmlns:inkscape="http://www.inkscape.org/namespaces/inkscape"
   xmlns:sodipodi="http://sodipodi.sourceforge.net/DTD/sodipodi-0.dtd"
   xmlns="http://www.w3.org/2000/svg"
   xmlns:svg="http://www.w3.org/2000/svg">
  <defs
     id="defs647" />
  <sodipodi:namedview
     id="namedview645"
     pagecolor="#ffffff"
     bordercolor="#666666"
     borderopacity="1.0"
     inkscape:showpageshadow="2"
     inkscape:pageopacity="0.0"
     inkscape:pagecheckerboard="0"
     inkscape:deskcolor="#d1d1d1"
     showgrid="false"
     inkscape:zoom="12.71875"
     inkscape:cx="28.501229"
     inkscape:cy="32"
     inkscape:window-width="1920"
     inkscape:window-height="1017"
     inkscape:window-x="1912"
     inkscape:window-y="-8"
     inkscape:window-maximized="1"
     inkscape:current-layer="svg643" />
  <g
     id="surface1"
     transform="translate(4,6)">
    <path
       style="fill:#ffffff;fill-opacity:1;fill-rule:nonzero;stroke:none"
       d="m 56.65625,39.625 v 10 c 0,0.832031 -0.296875,1.542969 -0.882812,2.125 -0.585938,0.582031 -1.296876,0.875 -2.136719,0.875 H 43.582031 c -0.835937,0 -1.550781,-0.292969 -2.136719,-0.875 -0.585937,-0.582031 -0.878906,-1.292969 -0.878906,-2.125 v -10 c 0,-0.832031 0.292969,-1.542969 0.878906,-2.125 0.585938,-0.582031 1.300782,-0.875 2.136719,-0.875 h 3.015625 v -6 H 30.511719 v 6 h 3.015625 c 0.839844,0 1.550781,0.292969 2.136718,0.875 0.585938,0.582031 0.878907,1.292969 0.878907,2.125 v 10 c 0,0.832031 -0.292969,1.542969 -0.878907,2.125 -0.585937,0.582031 -1.296874,0.875 -2.136718,0.875 H 23.472656 c -0.839844,0 -1.550781,-0.292969 -2.136718,-0.875 C 20.75,51.167969 20.457031,50.457031 20.457031,49.625 v -10 c 0,-0.832031 0.292969,-1.542969 0.878907,-2.125 0.585937,-0.582031 1.296874,-0.875 2.136718,-0.875 h 3.015625 v -6 H 10.402344 v 6 h 3.015625 c 0.835937,0 1.550781,0.292969 2.136719,0.875 0.585937,0.582031 0.878906,1.292969 0.878906,2.125 v 10 c 0,0.832031 -0.292969,1.542969 -0.878906,2.125 -0.585938,0.582031 -1.300782,0.875 -2.136719,0.875 H 3.363281 C 2.523438,52.625 1.8125,52.332031 1.226562,51.75 0.640625,51.167969 0.34375,50.457031 0.34375,49.625 v -10 c 0,-0.832031 0.296875,-1.542969 0.882812,-2.125 0.585938,-0.582031 1.296876,-0.875 2.136719,-0.875 h 3.015625 v -6 c 0,-1.082031 0.398438,-2.019531 1.195313,-2.8125 C 8.367188,27.019531 9.3125,26.625 10.402344,26.625 h 16.085937 v -6 h -3.015625 c -0.839844,0 -1.550781,-0.292969 -2.136718,-0.875 C 20.75,19.167969 20.457031,18.457031 20.457031,17.625 v -10 c 0,-0.832031 0.292969,-1.542969 0.878907,-2.125 0.585937,-0.582031 1.296874,-0.875 2.136718,-0.875 h 10.054688 c 0.839844,0 1.550781,0.292969 2.136718,0.875 0.585938,0.582031 0.878907,1.292969 0.878907,2.125 v 10 c 0,0.832031 -0.292969,1.542969 -0.878907,2.125 -0.585937,0.582031 -1.296874,0.875 -2.136718,0.875 h -3.015625 v 6 h 16.085937 c 1.089844,0 2.035156,0.394531 2.828125,1.1875 0.796875,0.792969 1.195313,1.730469 1.195313,2.8125 v 6 h 3.015625 c 0.839843,0 1.550781,0.292969 2.136719,0.875 0.585937,0.582031 0.882812,1.292969 0.882812,2.125 z m 0,0"
       id="path640" />
  </g>
</svg>
